<svg width="159" height="34" viewBox="0 0 159 34" fill="none" xmlns="http://www.w3.org/2000/svg">
<path fill-rule="evenodd" clip-rule="evenodd" d="M17.5014 23.2403C19.2482 23.2403 20.8417 24.036 21.889 25.4274L21.9466 25.5053L26.8549 32.2611L23.2429 33.9994L18.7558 27.8233C18.4607 27.4172 18.0035 27.1844 17.5014 27.1844C17.0203 27.1844 16.5802 27.3982 16.285 27.7735L16.2473 27.8233L11.7595 34.0001L8.14788 32.2611L13.0564 25.5053C14.1021 24.0658 15.7223 23.2403 17.5014 23.2403ZM0.54284 13.1389L8.47201 15.7153C10.164 16.265 11.4499 17.5507 11.9998 19.2429C12.5393 20.903 12.2755 22.6633 11.2779 24.0883L11.2195 24.1701L6.30969 30.9279L3.54235 28.0271L8.02861 21.8522C8.32384 21.446 8.40388 20.9391 8.24888 20.4615C8.10012 20.0041 7.76082 19.6517 7.31247 19.4865L7.25338 19.466L0 17.1093L0.54284 13.1389ZM34.4593 13.1394L35.0021 17.1098L27.7501 19.4661C27.2725 19.6213 26.9096 19.9843 26.7544 20.4616C26.6058 20.9193 26.6733 21.4039 26.9389 21.8009L26.9744 21.8522L31.462 28.0285L28.6927 30.9266L23.7837 24.1702C22.7382 22.7311 22.4537 20.935 23.0036 19.243C23.5433 17.5815 24.7927 16.312 26.4393 15.7461L26.5312 15.7154L34.4593 13.1394ZM92.4584 9.0987C93.7464 9.0987 94.9419 9.1966 96.0446 9.39349C97.1472 9.58973 98.1674 9.89554 99.1067 10.3103C100.984 11.1179 102.431 12.2803 103.446 13.7979C104.461 15.3151 104.968 17.1544 104.968 19.3159C104.968 20.2984 104.859 21.2204 104.641 22.083C104.436 22.8914 104.126 23.6471 103.71 24.35L103.626 24.4898C102.752 25.9746 101.383 27.1317 99.5159 27.9614C97.6493 28.7909 95.2424 29.2058 92.295 29.2058C90.8104 29.2058 89.4677 29.1075 88.2667 28.911C87.1293 28.7247 86.119 28.4406 85.2361 28.0588L85.0901 27.9943C83.3 27.2082 82.0011 26.0727 81.1932 24.5884C80.3853 23.1036 79.9816 21.3461 79.9816 19.3159C79.9816 18.2679 80.1126 17.2909 80.3748 16.3851C80.6365 15.4787 81.0186 14.6437 81.5209 13.8798C82.5468 12.3518 83.9989 11.1726 85.8764 10.3429C87.7536 9.51344 89.9479 9.0987 92.4584 9.0987ZM145.582 9.0987C146.87 9.0987 148.065 9.1966 149.168 9.39349C150.27 9.58973 151.291 9.89554 152.23 10.3103C154.107 11.1179 155.554 12.2803 156.569 13.7979C157.584 15.3151 158.091 17.1544 158.091 19.3159C158.091 20.2984 157.982 21.2204 157.764 22.083C157.56 22.8914 157.249 23.6471 156.834 24.35L156.749 24.4898C155.876 25.9746 154.506 27.1317 152.639 27.9614C150.772 28.7909 148.366 29.2058 145.418 29.2058C143.934 29.2058 142.591 29.1075 141.39 28.911C140.253 28.7247 139.242 28.4406 138.359 28.0588L138.213 27.9943C136.423 27.2082 135.124 26.0727 134.316 24.5884C133.509 23.1036 133.105 21.3461 133.105 19.3159C133.105 18.2679 133.236 17.2909 133.498 16.3851C133.76 15.4787 134.142 14.6437 134.644 13.8798C135.67 12.3518 137.122 11.1726 139 10.3429C140.877 9.51344 143.071 9.0987 145.582 9.0987ZM131.692 3.69512V19.7572L131.683 19.7687L131.679 19.7645C131.651 20.5794 131.549 21.354 131.365 22.0831C131.16 22.8918 130.85 23.6473 130.434 24.3501L130.349 24.49C129.476 25.9747 128.106 27.1318 126.24 27.9618C124.373 28.791 121.966 29.206 119.019 29.206C117.534 29.206 116.191 29.1076 114.991 28.9112C113.79 28.7145 112.731 28.4089 111.814 27.9944C110.024 27.2086 108.725 26.0728 107.917 24.5885C107.109 23.1038 106.705 21.3462 106.705 19.316C106.705 18.268 106.836 17.291 107.098 16.3853C107.361 15.4789 107.742 14.6439 108.244 13.8799C109.271 12.3519 110.723 11.1727 112.6 10.343C114.477 9.51357 116.672 9.20797 119.183 9.20797C121.6 9.20797 124.852 10.2868 126.201 12.1933L126.256 12.2721V3.69512H131.692ZM54.3145 4.64494V9.85087H64.633V14.3768H54.3145V18.3987C54.3145 18.6489 54.3171 18.8886 54.3223 19.1179L54.3298 19.3881C54.3356 19.5649 54.3431 19.735 54.3523 19.8985L54.3673 20.1386C54.3971 20.5698 54.4395 20.9505 54.4946 21.2807C54.6145 22.0013 54.8604 22.5362 55.2312 22.8854C55.5805 23.2565 56.0881 23.4966 56.7541 23.6058C57.0725 23.6581 57.4396 23.6978 57.8555 23.725L58.0871 23.7387L58.3284 23.7498C58.3695 23.7514 58.4109 23.753 58.4527 23.7544L58.7085 23.7619L58.974 23.7668C59.019 23.7674 59.0645 23.7679 59.1103 23.7683L59.3903 23.7696H62.2721V28.5837H57.9166C56.7594 28.5837 55.7335 28.507 54.8383 28.3544C53.9434 28.2014 53.1792 27.9831 52.5459 27.6993C51.2578 27.0879 50.3518 26.1054 49.828 24.7521C49.4141 23.683 49.1666 22.323 49.0799 20.682L49.0715 20.5112L49.0714 14.3842H44.0476V9.85078H49.0714L49.0715 4.64494H54.3145ZM79.3763 9.0982L79.3926 9.09842V13.5858C77.1258 13.5931 75.0071 14.0662 73.8694 15.0092C72.7467 15.9393 72.1734 17.3357 72.1505 19.1983L72.1498 19.3154L72.1505 28.5831H66.8995V19.3154C66.8995 18.2674 67.0301 17.2904 67.2922 16.3846C67.5542 15.4782 67.9365 14.6432 68.4385 13.8792C69.4647 12.3513 70.9166 11.1721 72.7941 10.3424C74.6717 9.51293 76.8658 9.0982 79.3763 9.0982ZM119.247 13.5847C116.954 13.5847 115.235 14.0594 114.089 15.0092C112.943 15.9589 112.37 17.3942 112.37 19.3156C112.37 21.0839 112.91 22.4156 113.991 23.3108C115.072 24.2058 116.802 24.6536 119.182 24.6536C121.67 24.6536 123.433 24.195 124.47 23.278C125.507 22.3609 126.026 21.0404 126.026 19.3156C126.026 17.4379 125.491 16.0136 124.421 15.0421C123.351 14.0706 121.627 13.5847 119.247 13.5847ZM92.5253 13.5847C90.2331 13.5847 88.5138 14.0594 87.3675 15.0092C86.2214 15.9589 85.6483 17.3942 85.6483 19.3156C85.6483 21.0839 86.1887 22.4156 87.2693 23.3108C88.35 24.2058 90.0801 24.6534 92.4596 24.6534C94.9489 24.6534 96.7117 24.1947 97.7487 23.278C98.7859 22.3609 99.3042 21.0404 99.3042 19.3156C99.3042 17.4379 98.7693 16.0136 97.6997 15.0421C96.6295 14.0704 94.9053 13.5847 92.5253 13.5847ZM145.649 13.5847C143.356 13.5847 141.637 14.0594 140.491 15.0092C139.345 15.9589 138.772 17.3942 138.772 19.3156C138.772 21.0839 139.312 22.4156 140.393 23.3108C141.473 24.2058 143.203 24.6534 145.583 24.6534C148.072 24.6534 149.835 24.1947 150.872 23.278C151.909 22.3609 152.427 21.0404 152.427 19.3156C152.427 17.4379 151.892 16.0136 150.823 15.0421C149.753 14.0704 148.028 13.5847 145.649 13.5847ZM16.3672 0.00201232V8.33049C16.3672 10.1096 15.5419 11.7297 14.1023 12.7757C13.1443 13.4716 12.0282 13.8305 10.89 13.8305C10.3623 13.8305 9.82965 13.7531 9.30566 13.5968L9.17485 13.556L1.24965 10.981L3.14959 7.4514L10.3937 9.80511C10.8717 9.96055 11.3782 9.88007 11.7843 9.58484C12.1733 9.30212 12.4036 8.87036 12.4221 8.393L12.4233 8.33049V0.720361L16.3672 0.00201232ZM18.6381 0L22.5822 0.71923L22.582 8.33046C22.582 8.83251 22.8148 9.2898 23.2212 9.58481C23.6104 9.86753 24.0919 9.95302 24.5519 9.82323L24.6118 9.80508L31.8561 7.45138L33.7556 10.9809L25.8304 13.556C25.2648 13.7397 24.687 13.8303 24.1152 13.8303C22.9769 13.8303 21.861 13.4716 20.9029 12.7755C19.4898 11.7487 18.6683 10.1683 18.6389 8.42734L18.6381 8.33046V0Z" fill="#0067B2"/>
</svg>
